<svg xmlns="http://www.w3.org/2000/svg" aria-hidden="true" style="position:absolute;width:0;height:0;overflow:hidden">
  <defs>
    <symbol id="icon-decor-bg-3" viewBox="0 0 41 32">
      <path fill="#00b068" d="M33.124 16.205h-.931a.114.114 0 0 1-.114-.114v-.931c0-.063.051-.114.114-.114h.931c.063 0 .114.051.114.114v.931a.114.114 0 0 1-.114.114zM28.342 3.087h-.931a.114.114 0 0 1-.114-.114v-.931c0-.063.051-.114.114-.114h.931c.063 0 .114.051.114.114v.931a.114.114 0 0 1-.114.114zM25.023 26.294h-.851a.114.114 0 0 1-.114-.114v-.851c0-.063.051-.114.114-.114h.851c.063 0 .114.051.114.114v.851a.114.114 0 0 1-.114.114zM38.09 19.753h-1.511a.114.114 0 0 1-.114-.114v-1.511c0-.063.051-.114.114-.114h1.511c.063 0 .114.051.114.114v1.511a.114.114 0 0 1-.114.114zM24.507 9.005h-.352a.114.114 0 0 1-.114-.114v-.352c0-.063.051-.114.114-.114h.352c.063 0 .114.051.114.114v.352a.114.114 0 0 1-.114.114zM40.602 11.32h-.352a.114.114 0 0 1-.114-.114v-.352c0-.063.051-.114.114-.114h.352c.063 0 .114.051.114.114v.352a.114.114 0 0 1-.114.114zM11.646 24.715h-.352a.114.114 0 0 1-.114-.114v-.352c0-.063.051-.114.114-.114h.352c.063 0 .114.051.114.114v.352a.114.114 0 0 1-.114.114zM1.039 31.417H.687a.114.114 0 0 1-.114-.114v-.352c0-.063.051-.114.114-.114h.352c.063 0 .114.051.114.114v.352a.114.114 0 0 1-.114.114zM21.633 17.353h-.931a.114.114 0 0 1-.114-.114v-.931c0-.063.051-.114.114-.114h.931c.063 0 .114.051.114.114v.931a.114.114 0 0 1-.114.114zM12.263 10.681h-.352a.114.114 0 0 1-.114-.114v-.352c0-.063.051-.114.114-.114h.352c.063 0 .114.051.114.114v.352a.114.114 0 0 1-.114.114z" style="fill:var(--color1, #00b068)"/>
    </symbol>
  </defs>
</svg>
