<svg xmlns="http://www.w3.org/2000/svg" aria-hidden="true" style="position:absolute;width:0;height:0;overflow:hidden">
  <defs>
    <symbol id="icon-hero-arrow" viewBox="0 0 32 32">
      <path d="M1.067 14.933a1.067 1.067 0 0 0 0 2.134v-2.133zm30.621 1.821a1.065 1.065 0 0 0 0-1.508L24.9 8.458a1.065 1.065 0 1 0-1.508 1.508L29.426 16l-6.034 6.034a1.065 1.065 0 1 0 1.508 1.508l6.788-6.788zm-30.621.313h29.867v-2.133H1.067v2.133z"/>
    </symbol>
    <symbol id="icon-arrow-up-right" viewBox="0 0 24 24">
      <path d="M7 8h7.586l-8.293 8.293c-0.391 0.391-0.391 1.024 0 1.414s1.024 0.391 1.414 0l8.293-8.293v7.586c0 0.552 0.448 1 1 1s1-0.448 1-1v-10c0-0.136-0.027-0.265-0.076-0.383s-0.121-0.228-0.216-0.323c-0.001-0.001-0.001-0.001-0.002-0.002-0.092-0.092-0.202-0.166-0.323-0.216-0.118-0.049-0.247-0.076-0.383-0.076h-10c-0.552 0-1 0.448-1 1s0.448 1 1 1z"></path>
    </symbol>
    <symbol id="icon-user-01" viewBox="0 0 32 32">
      <path stroke-linecap="round" stroke-linejoin="round" stroke-width="2.667" d="M26.667 28c0-1.861 0-2.791-.23-3.548a5.333 5.333 0 0 0-3.556-3.556c-.757-.23-1.687-.23-3.548-.23h-6.667c-1.861 0-2.791 0-3.548.23a5.335 5.335 0 0 0-3.556 3.556c-.23.757-.23 1.687-.23 3.548M16 16a6 6 0 1 0 0-12 6 6 0 0 0 0 12z"/>
    </symbol>
    <symbol id="icon-message-chat-circle" viewBox="0 0 32 32">
      <path stroke-linecap="round" stroke-linejoin="round" stroke-width="2.667" d="M8.126 14.972A10.66 10.66 0 0 1 8 13.334C8 7.443 12.807 2.667 18.737 2.667s10.737 4.776 10.737 10.667c0 1.331-.245 2.605-.693 3.779-.093.244-.14.366-.161.461s-.029.161-.031.257c-.002.097.011.205.037.42l.537 4.36c.058.472.087.708.009.88a.667.667 0 0 1-.343.335c-.173.075-.409.04-.879-.029l-4.247-.623a2.965 2.965 0 0 0-.434-.048c-.1.001-.169.008-.267.028s-.225.068-.477.163a10.78 10.78 0 0 1-3.787.683c-.558 0-1.105-.042-1.64-.124m-6.923 5.457c3.953 0 7.158-3.283 7.158-7.333s-3.205-7.333-7.158-7.333c-3.953 0-7.158 3.283-7.158 7.333 0 .814.13 1.597.369 2.329.101.309.152.464.168.57.017.11.02.172.014.284-.006.107-.033.227-.086.469l-.815 3.682 3.993-.545c.218-.03.327-.045.422-.044.1.001.153.006.252.026.093.019.232.067.51.165a6.994 6.994 0 0 0 2.332.398z"/>
    </symbol>
    <symbol id="icon-brush-01" viewBox="0 0 32 32">
      <path stroke-linecap="round" stroke-linejoin="round" stroke-width="2.667" d="M17.037 20.001 12 14.964M2.667 29.332c2.667 0 6.144.456 7.966-1.367a4.668 4.668 0 0 0-6.6-6.6c-1.823 1.822 0 5.3-1.367 7.967z"/>
      <path stroke-linecap="round" stroke-linejoin="round" stroke-width="2.667" d="M10.667 21.332c-.655-.655-.983-.983-1.168-1.326a2.668 2.668 0 0 1 .05-2.623c.198-.336.538-.651 1.218-1.28L23.924 3.92a2.94 2.94 0 0 1 4.153 4.153L15.894 21.23c-.63.68-.944 1.02-1.28 1.218-.805.475-1.8.495-2.623.05-.343-.185-.671-.513-1.326-1.168z"/>
    </symbol>
    <symbol id="icon-hourglass-02" viewBox="0 0 32 32">
      <path stroke-linecap="round" stroke-linejoin="round" stroke-width="2.667" d="M24.217 2.667H7.783c-.617 0-1.117.5-1.117 1.117a13.4 13.4 0 0 0 3.925 9.475l1.626 1.626c.161.161.242.242.3.32a1.335 1.335 0 0 1 0 1.594c-.058.077-.139.158-.3.32l-1.626 1.626a13.4 13.4 0 0 0-3.925 9.475c0 .617.5 1.117 1.117 1.117h16.434c.617 0 1.117-.5 1.117-1.117a13.4 13.4 0 0 0-3.925-9.475l-1.626-1.626c-.161-.161-.242-.242-.3-.32a1.332 1.332 0 0 1 0-1.594c.058-.077.139-.158.3-.32l1.626-1.626a13.4 13.4 0 0 0 3.925-9.475c0-.617-.5-1.117-1.117-1.117z"/>
    </symbol>
    <symbol id="icon-faq-arrow" viewBox="0 0 24 24">
      <path d="M5.293 9.707l6 6c0.391 0.391 1.024 0.391 1.414 0l6-6c0.391-0.391 0.391-1.024 0-1.414s-1.024-0.391-1.414 0l-5.293 5.293-5.293-5.293c-0.391-0.391-1.024-0.391-1.414 0s-0.391 1.024 0 1.414z"></path>
    </symbol>
    <svg id="icon-dropdown-up" viewBox="0 0 24 24"  >
      <path d="M18 15L12 9L6 15" stroke="#292929" stroke-width="2" stroke-linecap="round" />
    </svg>
    <svg id="icon-dropdown"  viewBox="0 0 24 24"  >
      <path  d="M18 9L12 15L6 9" stroke="#292929" stroke-width="2" stroke-linecap="round" />
    </svg>
    <symbol id="icon-arrow-narrow-right" viewBox="0 0 32 32">
      <path stroke-linecap="round" stroke-linejoin="round" stroke-width="2.667" d="M26.667 16H5.334M13.333 24l-8-8 8-8"/>
    </symbol>
    <symbol id="icon-arrow-narrow-left" viewBox="0 0 32 32">
      <path stroke-linecap="round" stroke-linejoin="round" stroke-width="2.667" d="M5.333 16h21.333M18.667 8l8 8-8 8"/>
    </symbol>
    <symbol id="icon-tel" viewBox="0 0 32 32">
      <path stroke-linecap="round" stroke-linejoin="round" stroke-width="1.333" d="M3 9c0 11.045 8.955 20 20 20h3a3.004 3.004 0 0 0 3-3v-1.829a1.5 1.5 0 0 0-1.136-1.455l-5.897-1.475a1.498 1.498 0 0 0-1.564.556l-1.293 1.724c-.376.501-1.025.723-1.613.507a16.028 16.028 0 0 1-9.524-9.524c-.216-.588.005-1.237.507-1.613l1.724-1.293c.484-.361.703-.979.556-1.564L9.285 4.137A1.498 1.498 0 0 0 7.83 3.001H6.001a3.004 3.004 0 0 0-3 3v3z"/>
    </symbol>
    <symbol id="icon-email" viewBox="0 0 32 32">
      <path stroke-linecap="round" stroke-linejoin="round" stroke-width="1.333" d="M29 9v14a3.004 3.004 0 0 1-3 3H6a3.004 3.004 0 0 1-3-3V9m26 0a3.004 3.004 0 0 0-3-3H6a3.004 3.004 0 0 0-3 3m26 0v.324a2.998 2.998 0 0 1-1.427 2.555l-10 6.153a3.004 3.004 0 0 1-3.146 0l-10-6.152A3.001 3.001 0 0 1 3 9.325V9"/>
    </symbol>
    <symbol id="icon-loc" viewBox="0 0 32 32">
      <path stroke-linecap="round" stroke-linejoin="round" stroke-width="1.333" d="M20 14a4.003 4.003 0 0 1-4 4 4.003 4.003 0 0 1-4-4 4.003 4.003 0 0 1 4-4 4.003 4.003 0 0 1 4 4z"/>
      <path stroke-linecap="round" stroke-linejoin="round" stroke-width="1.333" d="M26 14c0 9.523-10 15-10 15S6 23.523 6 14a10.001 10.001 0 0 1 20 0z"/>
    </symbol>
    <symbol id="icon-menu" viewBox="0 0 32 32">
      <path d="M5.334 23.027v-1.333h21.333v1.333h-21.333zM5.334 16.667v-1.333h21.333v1.333h-21.333zM5.334 10.307v-1.333h21.333v1.333h-21.333z"></path>
    </symbol>
    <symbol id="icon-moon" viewBox="0 0 22 32">
      <path fill="#00b068" style="fill: var(--color1, #00b068)" d="M0 30.669c5.651-2.469 9.6-8.108 9.6-14.669s-3.949-12.2-9.6-14.669c1.96-0.856 4.124-1.331 6.4-1.331 8.837 0 16 7.163 16 16s-7.163 16-16 16c-2.276 0-4.44-0.475-6.4-1.331z"></path>
    </symbol>
    <symbol id="icon-checkmark" viewBox="0 0 32 32">
      <path d="M16 0c4.243 0 8.313 1.686 11.314 4.686s4.686 7.070 4.686 11.314-1.686 8.313-4.686 11.314c-3 3.001-7.070 4.686-11.314 4.686s-8.313-1.686-11.314-4.686c-3.001-3-4.686-7.070-4.686-11.314s1.686-8.313 4.686-11.314c3.001-3.001 7.070-4.686 11.314-4.686zM14.007 19.157l-3.554-3.557c-0.127-0.127-0.279-0.229-0.445-0.297s-0.345-0.104-0.525-0.104c-0.18 0-0.359 0.035-0.525 0.104s-0.318 0.17-0.445 0.297c-0.257 0.257-0.402 0.606-0.402 0.97s0.145 0.713 0.402 0.97l4.526 4.526c0.127 0.128 0.278 0.23 0.445 0.299s0.345 0.105 0.526 0.105c0.18 0 0.359-0.036 0.526-0.105s0.318-0.171 0.445-0.299l9.371-9.374c0.129-0.127 0.232-0.278 0.302-0.445s0.107-0.346 0.108-0.527c0.001-0.181-0.034-0.36-0.103-0.528s-0.17-0.32-0.298-0.448c-0.128-0.128-0.28-0.23-0.447-0.299s-0.347-0.104-0.528-0.104-0.36 0.037-0.527 0.107c-0.167 0.070-0.318 0.173-0.445 0.302l-8.405 8.405z"></path>
    </symbol>
    <symbol id="icon-close" viewBox="0 0 24 24">
      <path d="M18.984 6.422l-5.578 5.578 5.578 5.578-1.406 1.406-5.578-5.578-5.578 5.578-1.406-1.406 5.578-5.578-5.578-5.578 1.406-1.406 5.578 5.578 5.578-5.578z"></path>
    </symbol>
  </defs>
</svg>